<?xml version="1.0" encoding="UTF-8" standalone="no"?>
<svg width="40px" height="40px" viewBox="0 0 40 40" version="1.1" xmlns="http://www.w3.org/2000/svg" xmlns:xlink="http://www.w3.org/1999/xlink">
    <!-- Generator: Sketch 3.8.3 (29802) - http://www.bohemiancoding.com/sketch -->
    <title>symmLight</title>
    <desc>Created with Sketch.</desc>
    <defs>
        <rect id="path-1" x="0" y="0" width="40" height="40" rx="1"></rect>
        <mask id="mask-2" maskContentUnits="userSpaceOnUse" maskUnits="objectBoundingBox" x="0" y="0" width="40" height="40" fill="white">
            <use xlink:href="#path-1"></use>
        </mask>
    </defs>
    <g id="Page-1" stroke="none" stroke-width="1" fill="none" fill-rule="evenodd">
        <g id="Artboard-4" transform="translate(-65.000000, -70.000000)">
            <g id="symmLight" transform="translate(65.000000, 70.000000)">
                <rect id="Rectangle-84" fill="#D8D8D8" x="18" y="8" width="4" height="25"></rect>
                <rect id="Rectangle-93-Copy-3" fill="#FF1C1C" x="23" y="8" width="4" height="1"></rect>
                <rect id="Rectangle-93-Copy-4" fill="#FF1C1C" x="13" y="8" width="4" height="1"></rect>
                <rect id="Rectangle-97-Copy-2" fill="#FF1C1C" x="23" y="32" width="4" height="1"></rect>
                <rect id="Rectangle-93-Copy-5" fill="#FF1C1C" x="13" y="32" width="4" height="1"></rect>
                <path d="M14,9.00888915 C14,9.00888915 15.0914981,9.24099414 15.8544922,9.77298826 C16.6174862,10.3049824 16.9647217,11.0760278 16.9647217,11.0760278 L16.9647217,9 L14,9.00888915 Z" id="Path-155-Copy" fill="#FF1C1C"></path>
                <path d="M23,9.00888915 C23,9.00888915 24.0914981,9.24099414 24.8544922,9.77298826 C25.6174862,10.3049824 25.9647217,11.0760278 25.9647217,11.0760278 L25.9647217,9 L23,9.00888915 Z" id="Path-155-Copy-2" fill="#FF1C1C" transform="translate(24.482361, 10.038014) scale(-1, 1) translate(-24.482361, -10.038014) "></path>
                <path d="M14,30.0088892 C14,30.0088892 15.0914981,30.2409941 15.8544922,30.7729883 C16.6174862,31.3049824 16.9647217,32.0760278 16.9647217,32.0760278 L16.9647217,30 L14,30.0088892 Z" id="Path-155-Copy-3" fill="#FF1C1C" transform="translate(15.482361, 31.038014) scale(1, -1) translate(-15.482361, -31.038014) "></path>
                <path d="M23,30.0088892 C23,30.0088892 24.0914981,30.2409941 24.8544922,30.7729883 C25.6174862,31.3049824 25.9647217,32.0760278 25.9647217,32.0760278 L25.9647217,30 L23,30.0088892 Z" id="Path-155-Copy-4" fill="#FF1C1C" transform="translate(24.482361, 31.038014) scale(-1, -1) translate(-24.482361, -31.038014) "></path>
                <use id="Rectangle-122-Copy-6" stroke="#D8D8D8" mask="url(#mask-2)" stroke-width="4" xlink:href="#path-1"></use>
            </g>
        </g>
    </g>
</svg>